<svg xmlns="http://www.w3.org/2000/svg" width="1060" height="560" viewBox="0 0 1060 560">
<rect width="100%" height="100%" fill="white"/>
<text x="530" y="25" font-family="Arial, sans-serif" font-size="18" text-anchor="middle" >Branch Policy vs Correct Prediction Rate</text>
<line x1="75" y1="465" x2="870" y2="465" stroke="#dddddd"/>
<text x="63" y="469" font-family="Arial, sans-serif" font-size="11" text-anchor="end" >0.00</text>
<line x1="75" y1="381" x2="870" y2="381" stroke="#dddddd"/>
<text x="63" y="385" font-family="Arial, sans-serif" font-size="11" text-anchor="end" >20.00</text>
<line x1="75" y1="297" x2="870" y2="297" stroke="#dddddd"/>
<text x="63" y="301" font-family="Arial, sans-serif" font-size="11" text-anchor="end" >40.00</text>
<line x1="75" y1="213" x2="870" y2="213" stroke="#dddddd"/>
<text x="63" y="217" font-family="Arial, sans-serif" font-size="11" text-anchor="end" >60.00</text>
<line x1="75" y1="129" x2="870" y2="129" stroke="#dddddd"/>
<text x="63" y="133" font-family="Arial, sans-serif" font-size="11" text-anchor="end" >80.00</text>
<line x1="75" y1="45" x2="870" y2="45" stroke="#dddddd"/>
<text x="63" y="49" font-family="Arial, sans-serif" font-size="11" text-anchor="end" >100.00</text>
<line x1="75" y1="45" x2="75" y2="465" stroke="#222"/>
<line x1="75" y1="465" x2="870" y2="465" stroke="#222"/>
<rect x="89.6" y="135.3" width="22.8" height="329.7" fill="#1f77b4"/>
<rect x="116.4" y="377.1" width="22.8" height="87.9" fill="#ff7f0e"/>
<rect x="143.2" y="215.9" width="22.8" height="249.1" fill="#2ca02c"/>
<rect x="170.1" y="147.6" width="22.8" height="317.4" fill="#d62728"/>
<text x="141.2" y="489" font-family="Arial, sans-serif" font-size="11" text-anchor="middle" >matmul</text>
<rect x="222.1" y="181.3" width="22.8" height="283.7" fill="#1f77b4"/>
<rect x="248.9" y="330.5" width="22.8" height="134.5" fill="#ff7f0e"/>
<rect x="275.8" y="310.3" width="22.8" height="154.7" fill="#2ca02c"/>
<rect x="302.6" y="190.5" width="22.8" height="274.5" fill="#d62728"/>
<text x="273.8" y="489" font-family="Arial, sans-serif" font-size="11" text-anchor="middle" >conv2d</text>
<rect x="354.6" y="66.6" width="22.8" height="398.4" fill="#1f77b4"/>
<rect x="381.4" y="446.5" width="22.8" height="18.5" fill="#ff7f0e"/>
<rect x="408.2" y="69.7" width="22.8" height="395.3" fill="#2ca02c"/>
<rect x="435.1" y="69.7" width="22.8" height="395.3" fill="#d62728"/>
<text x="406.2" y="489" font-family="Arial, sans-serif" font-size="11" text-anchor="middle" >saxpy</text>
<rect x="487.1" y="66.6" width="22.8" height="398.4" fill="#1f77b4"/>
<rect x="513.9" y="446.6" width="22.8" height="18.4" fill="#ff7f0e"/>
<rect x="540.8" y="69.7" width="22.8" height="395.3" fill="#2ca02c"/>
<rect x="567.6" y="69.7" width="22.8" height="395.3" fill="#d62728"/>
<text x="538.8" y="489" font-family="Arial, sans-serif" font-size="11" text-anchor="middle" >dotproduct</text>
<rect x="619.6" y="148.3" width="22.8" height="316.7" fill="#1f77b4"/>
<rect x="646.4" y="221.6" width="22.8" height="243.4" fill="#ff7f0e"/>
<rect x="673.2" y="144.4" width="22.8" height="320.6" fill="#2ca02c"/>
<rect x="700.1" y="122.5" width="22.8" height="342.5" fill="#d62728"/>
<text x="671.2" y="489" font-family="Arial, sans-serif" font-size="11" text-anchor="middle" >factorial</text>
<rect x="752.1" y="185" width="22.8" height="280" fill="#1f77b4"/>
<rect x="778.9" y="280.2" width="22.8" height="184.8" fill="#ff7f0e"/>
<rect x="805.8" y="183.1" width="22.8" height="281.9" fill="#2ca02c"/>
<rect x="832.6" y="162.6" width="22.8" height="302.4" fill="#d62728"/>
<text x="803.8" y="489" font-family="Arial, sans-serif" font-size="11" text-anchor="middle" >quicksort</text>
<rect x="905" y="55" width="16" height="16" fill="#1f77b4"/>
<text x="930" y="68" font-family="Arial, sans-serif" font-size="12" text-anchor="start" >static_taken</text>
<rect x="905" y="79" width="16" height="16" fill="#ff7f0e"/>
<text x="930" y="92" font-family="Arial, sans-serif" font-size="12" text-anchor="start" >static_not_taken</text>
<rect x="905" y="103" width="16" height="16" fill="#2ca02c"/>
<text x="930" y="116" font-family="Arial, sans-serif" font-size="12" text-anchor="start" >one_bit</text>
<rect x="905" y="127" width="16" height="16" fill="#d62728"/>
<text x="930" y="140" font-family="Arial, sans-serif" font-size="12" text-anchor="start" >two_bit</text>
<text x="472.5" y="538" font-family="Arial, sans-serif" font-size="13" text-anchor="middle" >Benchmark</text>
<text x="18" y="255" font-family="Arial, sans-serif" font-size="13" text-anchor="middle" transform="rotate(-90 18 280)">Correct prediction rate (%)</text>
</svg>
